<mxfile host="Electron" modified="2024-06-18T12:39:00.701Z" agent="Mozilla/5.0 (Windows NT 10.0; Win64; x64) AppleWebKit/537.36 (KHTML, like Gecko) draw.io/24.1.0 Chrome/120.0.6099.109 Electron/28.1.0 Safari/537.36" etag="LZwHAgt3rDM70ZueUI6f" version="24.1.0" type="device">
  <diagram id="prtHgNgQTEPvFCAcTncT" name="Page-1">
    <mxGraphModel dx="842" dy="568" grid="1" gridSize="10" guides="1" tooltips="1" connect="1" arrows="1" fold="1" page="1" pageScale="1" pageWidth="827" pageHeight="1169" math="0" shadow="0">
      <root>
        <mxCell id="0" />
        <mxCell id="1" parent="0" />
        <mxCell id="dNxyNK7c78bLwvsdeMH5-11" value="总用例图" style="swimlane;html=1;startSize=20;horizontal=1;containerType=tree;glass=0;" parent="1" vertex="1">
          <mxGeometry x="180" width="710" height="500" as="geometry" />
        </mxCell>
        <mxCell id="q2W5IwXlpBtjP9VbVSR8-1" value="残疾人用户" style="shape=umlActor;verticalLabelPosition=bottom;verticalAlign=top;html=1;outlineConnect=0;" vertex="1" parent="dNxyNK7c78bLwvsdeMH5-11">
          <mxGeometry x="110" y="85" width="30" height="60" as="geometry" />
        </mxCell>
        <mxCell id="q2W5IwXlpBtjP9VbVSR8-2" value="残疾人家属" style="shape=umlActor;verticalLabelPosition=bottom;verticalAlign=top;html=1;outlineConnect=0;" vertex="1" parent="dNxyNK7c78bLwvsdeMH5-11">
          <mxGeometry x="110" y="290" width="30" height="60" as="geometry" />
        </mxCell>
        <mxCell id="q2W5IwXlpBtjP9VbVSR8-8" value="辅助控制系统" style="shape=umlActor;verticalLabelPosition=bottom;verticalAlign=top;html=1;outlineConnect=0;" vertex="1" parent="dNxyNK7c78bLwvsdeMH5-11">
          <mxGeometry x="510" y="220" width="30" height="60" as="geometry" />
        </mxCell>
        <mxCell id="q2W5IwXlpBtjP9VbVSR8-14" value="" style="rounded=0;whiteSpace=wrap;html=1;" vertex="1" parent="dNxyNK7c78bLwvsdeMH5-11">
          <mxGeometry x="190" y="80" width="280" height="360" as="geometry" />
        </mxCell>
        <mxCell id="q2W5IwXlpBtjP9VbVSR8-16" value="跟随模式" style="ellipse;whiteSpace=wrap;html=1;" vertex="1" parent="dNxyNK7c78bLwvsdeMH5-11">
          <mxGeometry x="260" y="160" width="80" height="50" as="geometry" />
        </mxCell>
        <mxCell id="q2W5IwXlpBtjP9VbVSR8-17" value="头控模式" style="ellipse;whiteSpace=wrap;html=1;" vertex="1" parent="dNxyNK7c78bLwvsdeMH5-11">
          <mxGeometry x="260" y="90" width="80" height="50" as="geometry" />
        </mxCell>
        <mxCell id="q2W5IwXlpBtjP9VbVSR8-26" value="遥控模式" style="ellipse;whiteSpace=wrap;html=1;" vertex="1" parent="dNxyNK7c78bLwvsdeMH5-11">
          <mxGeometry x="260" y="220" width="80" height="50" as="geometry" />
        </mxCell>
        <mxCell id="q2W5IwXlpBtjP9VbVSR8-28" value="" style="endArrow=classic;html=1;rounded=0;entryX=0;entryY=0.5;entryDx=0;entryDy=0;" edge="1" parent="dNxyNK7c78bLwvsdeMH5-11" source="q2W5IwXlpBtjP9VbVSR8-1" target="q2W5IwXlpBtjP9VbVSR8-17">
          <mxGeometry width="50" height="50" relative="1" as="geometry">
            <mxPoint x="370" y="280" as="sourcePoint" />
            <mxPoint x="420" y="230" as="targetPoint" />
          </mxGeometry>
        </mxCell>
        <mxCell id="q2W5IwXlpBtjP9VbVSR8-30" value="" style="endArrow=classic;html=1;rounded=0;entryX=0;entryY=0.5;entryDx=0;entryDy=0;" edge="1" parent="dNxyNK7c78bLwvsdeMH5-11" target="q2W5IwXlpBtjP9VbVSR8-16">
          <mxGeometry width="50" height="50" relative="1" as="geometry">
            <mxPoint x="150" y="320" as="sourcePoint" />
            <mxPoint x="280" y="185" as="targetPoint" />
          </mxGeometry>
        </mxCell>
        <mxCell id="q2W5IwXlpBtjP9VbVSR8-31" value="障碍避免" style="ellipse;whiteSpace=wrap;html=1;" vertex="1" parent="dNxyNK7c78bLwvsdeMH5-11">
          <mxGeometry x="260" y="290" width="80" height="50" as="geometry" />
        </mxCell>
        <mxCell id="q2W5IwXlpBtjP9VbVSR8-32" value="过速检测" style="ellipse;whiteSpace=wrap;html=1;" vertex="1" parent="dNxyNK7c78bLwvsdeMH5-11">
          <mxGeometry x="260" y="370" width="80" height="50" as="geometry" />
        </mxCell>
        <mxCell id="q2W5IwXlpBtjP9VbVSR8-41" value="" style="endArrow=classic;html=1;rounded=0;entryX=1;entryY=0.5;entryDx=0;entryDy=0;exitX=0;exitY=0.3333333333333333;exitDx=0;exitDy=0;exitPerimeter=0;" edge="1" parent="dNxyNK7c78bLwvsdeMH5-11" source="q2W5IwXlpBtjP9VbVSR8-8" target="q2W5IwXlpBtjP9VbVSR8-17">
          <mxGeometry width="50" height="50" relative="1" as="geometry">
            <mxPoint x="480" y="200" as="sourcePoint" />
            <mxPoint x="500" y="260" as="targetPoint" />
          </mxGeometry>
        </mxCell>
        <mxCell id="q2W5IwXlpBtjP9VbVSR8-37" value="" style="endArrow=classic;html=1;rounded=0;entryX=1;entryY=0.5;entryDx=0;entryDy=0;" edge="1" parent="dNxyNK7c78bLwvsdeMH5-11" target="q2W5IwXlpBtjP9VbVSR8-16">
          <mxGeometry width="50" height="50" relative="1" as="geometry">
            <mxPoint x="510" y="240" as="sourcePoint" />
            <mxPoint x="470" y="231" as="targetPoint" />
          </mxGeometry>
        </mxCell>
        <mxCell id="q2W5IwXlpBtjP9VbVSR8-29" value="" style="endArrow=classic;html=1;rounded=0;entryX=0;entryY=0.5;entryDx=0;entryDy=0;" edge="1" parent="1" target="q2W5IwXlpBtjP9VbVSR8-26">
          <mxGeometry width="50" height="50" relative="1" as="geometry">
            <mxPoint x="330" y="320" as="sourcePoint" />
            <mxPoint x="470" y="225" as="targetPoint" />
          </mxGeometry>
        </mxCell>
        <mxCell id="q2W5IwXlpBtjP9VbVSR8-38" value="" style="endArrow=classic;html=1;rounded=0;entryX=1;entryY=0.5;entryDx=0;entryDy=0;" edge="1" parent="1" target="q2W5IwXlpBtjP9VbVSR8-26">
          <mxGeometry width="50" height="50" relative="1" as="geometry">
            <mxPoint x="690" y="240" as="sourcePoint" />
            <mxPoint x="469" y="281" as="targetPoint" />
          </mxGeometry>
        </mxCell>
        <mxCell id="q2W5IwXlpBtjP9VbVSR8-39" value="" style="endArrow=classic;html=1;rounded=0;entryX=1;entryY=0.5;entryDx=0;entryDy=0;" edge="1" parent="1" target="q2W5IwXlpBtjP9VbVSR8-31">
          <mxGeometry width="50" height="50" relative="1" as="geometry">
            <mxPoint x="690" y="240" as="sourcePoint" />
            <mxPoint x="479" y="291" as="targetPoint" />
          </mxGeometry>
        </mxCell>
        <mxCell id="q2W5IwXlpBtjP9VbVSR8-40" value="" style="endArrow=classic;html=1;rounded=0;entryX=1;entryY=0.5;entryDx=0;entryDy=0;" edge="1" parent="1" target="q2W5IwXlpBtjP9VbVSR8-32">
          <mxGeometry width="50" height="50" relative="1" as="geometry">
            <mxPoint x="690" y="240" as="sourcePoint" />
            <mxPoint x="489" y="301" as="targetPoint" />
          </mxGeometry>
        </mxCell>
      </root>
    </mxGraphModel>
  </diagram>
</mxfile>
